<svg width="20" height="20" viewBox="0 0 20 20" fill="none" xmlns="http://www.w3.org/2000/svg">
<path d="M16.875 1.25H15.625V0.625C15.625 0.279531 15.3455 0 15 0C14.6545 0 14.375 0.279531 14.375 0.625V1.25H11.875V0.625C11.875 0.279531 11.5955 0 11.25 0C10.9045 0 10.625 0.279531 10.625 0.625V1.25H8.125V0.625C8.125 0.279531 7.84547 0 7.5 0C7.15453 0 6.875 0.279531 6.875 0.625V1.25H4.375V0.625C4.375 0.279531 4.09547 0 3.75 0C3.40453 0 3.125 0.279531 3.125 0.625V1.25H1.875C0.841094 1.25 0 2.09109 0 3.125V18.125C0 18.4705 0.279531 18.75 0.625 18.75H10.9522C10.352 17.8554 10 16.7809 10 15.625C10 12.5232 12.5232 10 15.625 10C16.7809 10 17.8554 10.352 18.75 10.9522V3.125C18.75 2.09109 17.9089 1.25 16.875 1.25ZM4.375 16.25H3.125C2.77953 16.25 2.5 15.9705 2.5 15.625C2.5 15.2795 2.77953 15 3.125 15H4.375C4.72047 15 5 15.2795 5 15.625C5 15.9705 4.72047 16.25 4.375 16.25ZM4.375 13.75H3.125C2.77953 13.75 2.5 13.4705 2.5 13.125C2.5 12.7795 2.77953 12.5 3.125 12.5H4.375C4.72047 12.5 5 12.7795 5 13.125C5 13.4705 4.72047 13.75 4.375 13.75ZM4.375 11.25H3.125C2.77953 11.25 2.5 10.9705 2.5 10.625C2.5 10.2795 2.77953 10 3.125 10H4.375C4.72047 10 5 10.2795 5 10.625C5 10.9705 4.72047 11.25 4.375 11.25ZM4.375 8.75H3.125C2.77953 8.75 2.5 8.47047 2.5 8.125C2.5 7.77953 2.77953 7.5 3.125 7.5H4.375C4.72047 7.5 5 7.77953 5 8.125C5 8.47047 4.72047 8.75 4.375 8.75ZM8.125 16.25H6.875C6.52953 16.25 6.25 15.9705 6.25 15.625C6.25 15.2795 6.52953 15 6.875 15H8.125C8.47047 15 8.75 15.2795 8.75 15.625C8.75 15.9705 8.47047 16.25 8.125 16.25ZM8.125 13.75H6.875C6.52953 13.75 6.25 13.4705 6.25 13.125C6.25 12.7795 6.52953 12.5 6.875 12.5H8.125C8.47047 12.5 8.75 12.7795 8.75 13.125C8.75 13.4705 8.47047 13.75 8.125 13.75ZM8.125 11.25H6.875C6.52953 11.25 6.25 10.9705 6.25 10.625C6.25 10.2795 6.52953 10 6.875 10H8.125C8.47047 10 8.75 10.2795 8.75 10.625C8.75 10.9705 8.47047 11.25 8.125 11.25ZM8.125 8.75H6.875C6.52953 8.75 6.25 8.47047 6.25 8.125C6.25 7.77953 6.52953 7.5 6.875 7.5H8.125C8.47047 7.5 8.75 7.77953 8.75 8.125C8.75 8.47047 8.47047 8.75 8.125 8.75ZM11.875 11.25H10.625C10.2795 11.25 10 10.9705 10 10.625C10 10.2795 10.2795 10 10.625 10H11.875C12.2205 10 12.5 10.2795 12.5 10.625C12.5 10.9705 12.2205 11.25 11.875 11.25ZM11.875 8.75H10.625C10.2795 8.75 10 8.47047 10 8.125C10 7.77953 10.2795 7.5 10.625 7.5H11.875C12.2205 7.5 12.5 7.77953 12.5 8.125C12.5 8.47047 12.2205 8.75 11.875 8.75ZM15.625 8.75H14.375C14.0295 8.75 13.75 8.47047 13.75 8.125C13.75 7.77953 14.0295 7.5 14.375 7.5H15.625C15.9705 7.5 16.25 7.77953 16.25 8.125C16.25 8.47047 15.9705 8.75 15.625 8.75ZM17.5 5H1.25V3.125C1.25 2.78016 1.53016 2.5 1.875 2.5H3.125V3.125C3.125 3.47047 3.40453 3.75 3.75 3.75C4.09547 3.75 4.375 3.47047 4.375 3.125V2.5H6.875V3.125C6.875 3.47047 7.15453 3.75 7.5 3.75C7.84547 3.75 8.125 3.47047 8.125 3.125V2.5H10.625V3.125C10.625 3.47047 10.9045 3.75 11.25 3.75C11.5955 3.75 11.875 3.47047 11.875 3.125V2.5H14.375V3.125C14.375 3.47047 14.6545 3.75 15 3.75C15.3455 3.75 15.625 3.47047 15.625 3.125V2.5H16.875C17.2198 2.5 17.5 2.78016 17.5 3.125V5Z" fill="#F76F0D"/>
<path d="M15.625 11.25C13.2129 11.25 11.25 13.2129 11.25 15.625C11.25 18.0371 13.2129 20 15.625 20C18.0371 20 20 18.0371 20 15.625C20 13.2129 18.0371 11.25 15.625 11.25ZM18.125 16.25H15.625C15.2795 16.25 15 15.9705 15 15.625V13.125C15 12.7795 15.2795 12.5 15.625 12.5C15.9705 12.5 16.25 12.7795 16.25 13.125V15H18.125C18.4705 15 18.75 15.2795 18.75 15.625C18.75 15.9705 18.4705 16.25 18.125 16.25Z" fill="#F76F0D"/>
</svg>
