<svg width="20" height="20" viewBox="0 0 20 20" fill="none" xmlns="http://www.w3.org/2000/svg">
<path d="M18.2422 2.38281H1.75785C1.48726 2.38281 1.23394 2.44934 1.00476 2.55898L9.96097 11.5152L11.9684 9.58602C11.9684 9.58602 11.9685 9.58582 11.9685 9.58574C11.9686 9.58566 11.9687 9.58559 11.9687 9.58559L18.9956 2.55914C18.7664 2.44941 18.5129 2.38281 18.2422 2.38281Z" fill="#9EF9F9"/>
<path d="M19.824 3.3877L13.2114 9.99996L19.8238 16.6123C19.9335 16.3832 20 16.1298 20 15.8593V4.14051C20 3.87008 19.9336 3.6168 19.824 3.3877Z" fill="#9EF9F9"/>
<path d="M0.176172 3.3877C0.0665234 3.61688 0 3.8702 0 4.14078V15.8595C0 16.13 0.0664453 16.3833 0.176016 16.6124L6.78863 10.0002L0.176172 3.3877Z" fill="#9EF9F9"/>
<path d="M12.383 10.8287L10.3753 12.7581C10.2608 12.8726 10.1109 12.9298 9.96104 12.9298C9.81116 12.9298 9.6612 12.8726 9.54678 12.7581L7.61725 10.8286L1.00452 17.4409C1.23374 17.5506 1.48721 17.6172 1.75788 17.6172H18.2423C18.5128 17.6172 18.7662 17.5507 18.9953 17.4411L12.383 10.8287Z" fill="#9EF9F9"/>
</svg>
