<svg width="163" height="23" viewBox="0 0 163 23" fill="none" xmlns="http://www.w3.org/2000/svg">
<path d="M155.627 22.4229C151.315 22.4229 148.254 19.0884 148.254 14.8155C148.254 10.5425 151.315 7.20806 155.627 7.20806C159.94 7.20806 163 10.5425 163 14.8155C163 19.0884 159.94 22.4229 155.627 22.4229ZM9.85711 11.0217L6.10107 22.2232H4.94843L0 7.46763H1.88795L5.5645 18.4894L9.26091 7.46763H10.4533L14.1696 18.4894L17.8263 7.46763H19.7341L14.7658 22.2232H13.633L9.85711 11.0217ZM22.2779 13.9768H33.4267C33.0889 10.9818 30.9426 8.76548 27.8622 8.76548C24.7819 8.76548 22.6356 10.9818 22.2779 13.9768ZM22.2779 15.5742C22.5561 18.6092 24.7223 20.8854 27.8622 20.8854C29.1937 20.8854 30.4656 20.4861 31.5586 19.7074C31.976 19.4079 32.4728 18.9686 32.751 18.5293L32.8504 18.3696H34.7781L34.4999 18.9087C34.162 19.5676 33.5261 20.2465 32.9498 20.7257C31.499 21.9437 29.7303 22.4828 27.8424 22.4828C23.4901 22.4828 20.4495 19.1283 20.4495 14.8354C20.4495 10.5425 23.4901 7.16813 27.8424 7.16813C29.4918 7.16813 31.1016 7.68727 32.4132 8.70558C33.3472 9.44436 34.0825 10.3828 34.5595 11.461C35.0762 12.6391 35.2948 13.9369 35.2352 15.2148L35.2153 15.5542H22.2779V15.5742ZM39.7265 14.8155C39.7265 18.1699 41.9126 20.8654 45.3506 20.8654C48.7887 20.8654 50.9946 18.1499 50.9946 14.8155C50.9946 11.481 48.8086 8.76548 45.3506 8.76548C41.8927 8.76548 39.7265 11.481 39.7265 14.8155ZM39.7265 19.5077V22.2232H37.9578V0H39.7265V10.1432C39.9451 9.82373 40.2035 9.52422 40.442 9.26465C41.7735 7.88694 43.4428 7.16813 45.3506 7.16813C49.7029 7.16813 52.7435 10.5226 52.7435 14.8155C52.7435 19.1283 49.683 22.4628 45.3506 22.4628C43.4826 22.4628 41.8331 21.7839 40.5016 20.4461C40.2234 20.1466 39.965 19.8471 39.7265 19.5077ZM65.8598 9.36449C66.9329 7.92687 68.4831 7.20806 70.2518 7.20806C71.5237 7.20806 72.7359 7.5475 73.7495 8.32621C75.5778 9.74386 76.174 12.1199 76.174 14.3363V22.1833H73.0936V14.6557C73.0936 12.679 72.6564 10.1432 70.1723 10.1432C67.6881 10.1432 67.2509 12.659 67.2509 14.6557V22.1833H64.1904V14.6557C64.1904 12.679 63.7532 10.1432 61.2691 10.1432C58.7849 10.1432 58.3477 12.659 58.3477 14.6557V22.1833H55.2674V7.44766H58.3477V8.04667C59.242 7.44766 60.2754 7.18809 61.3486 7.18809C63.157 7.20806 64.7668 7.88694 65.8598 9.36449ZM118.802 19.4877C119.895 19.4877 121.962 19.2681 121.962 17.7905C121.962 17.5909 121.942 17.3712 121.823 17.1915C121.386 16.4328 119.458 16.1532 118.663 16.0334C116.119 15.694 112.959 14.7356 112.959 11.5808C112.959 10.9618 113.079 10.3628 113.337 9.82373C114.311 7.76713 116.715 7.18809 118.782 7.18809C120.451 7.18809 122.18 7.6074 123.393 8.84535C124.148 9.62406 124.366 10.263 124.565 11.1216H121.425C121.346 11.0018 121.207 10.842 121.147 10.8021C120.531 10.263 119.597 10.1232 118.802 10.1232C117.848 10.1232 116.04 10.283 116.04 11.5808C116.04 11.7006 116.059 11.8404 116.119 11.9602C116.457 12.6391 118.285 12.9585 118.961 13.0584C121.743 13.4777 125.022 14.2963 125.022 17.7706C125.022 18.5892 124.824 19.3679 124.366 20.0668C123.194 21.9037 120.809 22.4229 118.782 22.4229C117.013 22.4229 115.165 22.0036 113.834 20.7257C113.317 20.2265 112.8 19.4877 112.621 18.7889L112.522 18.3496H115.742C115.861 18.4894 116 18.6291 116.099 18.709C116.854 19.308 117.888 19.4877 118.802 19.4877ZM129.076 7.46763V3.71385H132.157V7.46763H136.211V10.3828H132.157V16.0534C132.157 16.8321 132.157 17.6508 132.296 18.4095C132.336 18.6691 132.435 19.1083 132.654 19.2881C132.832 19.4478 133.19 19.4678 133.429 19.4678C133.926 19.4678 134.422 19.3679 134.919 19.2681L136.231 18.9686V21.8638L135.456 22.1034C134.78 22.3031 134.005 22.4029 133.309 22.4029C132.356 22.4029 131.421 22.2032 130.666 21.5842C129.951 20.9852 129.593 20.1666 129.375 19.2681C129.136 18.2098 129.096 17.1316 129.096 16.0534V10.3828H126.254V7.46763H129.076ZM142.193 7.94684C143.047 7.40773 144.021 7.18809 145.035 7.18809C145.73 7.18809 146.485 7.28793 147.161 7.4876L147.916 7.7272V10.7422L146.545 10.3229C146.068 10.1831 145.531 10.1232 145.035 10.1232C144.379 10.1232 143.743 10.263 143.266 10.7422C142.332 11.6807 142.233 13.6773 142.233 14.9153V22.1633H139.172V7.44766H142.233V7.94684H142.193ZM90.2243 8.72555V7.46763H93.2848V22.2032H90.2243V20.9253C88.9922 21.9237 87.5216 22.4229 85.9118 22.4229C81.5994 22.4229 78.5389 19.0884 78.5389 14.8155C78.5389 10.5425 81.5994 7.20806 85.9118 7.20806C87.5216 7.20806 88.9922 7.70723 90.2243 8.72555ZM90.2243 14.8155C90.2243 12.2198 88.5947 10.1232 85.9118 10.1232C83.229 10.1232 81.5994 12.2198 81.5994 14.7955C81.5994 17.3712 83.229 19.4678 85.9118 19.4678C88.5947 19.4678 90.2243 17.3912 90.2243 14.8155ZM98.9685 16.2331C99.4654 18.2098 101.015 19.4877 103.102 19.4877C104.136 19.4877 105.109 19.2082 105.944 18.5892C106.043 18.5293 106.143 18.4494 106.242 18.3496H109.958L109.74 18.7889C109.382 19.4877 108.766 20.1466 108.17 20.6458C106.739 21.8438 104.97 22.4029 103.102 22.4029C98.7897 22.4029 95.7292 19.0684 95.7292 14.7955C95.7292 10.5226 98.7897 7.16813 103.102 7.16813C104.752 7.16813 106.342 7.68727 107.653 8.70558C108.587 9.44436 109.322 10.3828 109.799 11.461C110.535 13.0983 110.515 14.4561 110.435 16.1932H98.9685V16.2331ZM99.0083 13.298H107.196C106.659 11.3811 105.129 10.1432 103.102 10.1432C101.075 10.1232 99.5449 11.3811 99.0083 13.298ZM159.92 14.8155C159.92 12.2397 158.29 10.1432 155.607 10.1432C152.924 10.1432 151.295 12.2397 151.295 14.8155C151.295 17.3912 152.924 19.4877 155.607 19.4877C158.29 19.4877 159.92 17.3912 159.92 14.8155Z" fill="black"/>
</svg>
