<svg width="216" height="71" viewBox="0 0 216 71" fill="none" xmlns="http://www.w3.org/2000/svg">
<path d="M170.208 0H35.424C15.8599 0 0 15.8939 0 35.5C0 55.1061 15.8599 71 35.424 71H170.208C189.772 71 205.632 55.1061 205.632 35.5C205.632 15.8939 189.772 0 170.208 0Z" fill="#10499E"/>
<path d="M35.5622 21.8196C37.9699 21.8196 40.0607 22.226 41.8349 23.0387C43.609 23.8261 44.9776 24.969 45.9406 26.4675C46.9036 27.9406 47.3852 29.6803 47.3852 31.6868C47.3852 33.6933 46.9036 35.433 45.9406 36.9062C44.9776 38.3793 43.609 39.5223 41.8349 40.335C40.0607 41.1224 37.9699 41.516 35.5622 41.516H30.9243V48.4878H23.3971V21.8196H35.5622ZM35.1061 35.5728C36.6521 35.5728 37.8178 35.2425 38.6035 34.5822C39.3892 33.8965 39.782 32.9314 39.782 31.6868C39.782 30.4422 39.3892 29.4772 38.6035 28.7914C37.8178 28.1056 36.6521 27.7628 35.1061 27.7628H30.9243V35.5728H35.1061ZM61.0164 48.8307C58.8114 48.8307 56.8218 48.3736 55.0479 47.4592C53.2737 46.5449 51.8797 45.275 50.8661 43.6495C49.8777 42.0239 49.3835 40.1826 49.3835 38.1253C49.3835 36.0935 49.8777 34.2648 50.8661 32.6393C51.8797 31.0137 53.2611 29.7565 55.0098 28.8676C56.7838 27.9533 58.786 27.4961 61.0164 27.4961C63.2465 27.4961 65.2488 27.9533 67.0229 28.8676C68.7969 29.7565 70.1782 31.0137 71.1666 32.6393C72.1551 34.2394 72.6493 36.068 72.6493 38.1253C72.6493 40.1826 72.1551 42.0239 71.1666 43.6495C70.1782 45.275 68.7969 46.5449 67.0229 47.4592C65.2488 48.3736 63.2465 48.8307 61.0164 48.8307ZM61.0164 43.078C62.2835 43.078 63.3226 42.6463 64.1337 41.7827C64.9446 40.8938 65.3502 39.6747 65.3502 38.1253C65.3502 36.6014 64.9446 35.4077 64.1337 34.5441C63.3226 33.6805 62.2835 33.2488 61.0164 33.2488C59.7491 33.2488 58.71 33.6805 57.8991 34.5441C57.0879 35.4077 56.6825 36.6014 56.6825 38.1253C56.6825 39.6747 57.0879 40.8938 57.8991 41.7827C58.71 42.6463 59.7491 43.078 61.0164 43.078ZM75.9952 20.2195H83.2182V48.4878H75.9952V20.2195Z" fill="white"/>
<mask id="mask0" mask-type="alpha" maskUnits="userSpaceOnUse" x="91" y="0" width="125" height="71">
<path fill-rule="evenodd" clip-rule="evenodd" d="M91.584 71V0H180.576C200.14 0 216 15.8939 216 35.5C216 55.106 200.14 71 180.576 71H91.584Z" fill="white"/>
</mask>
<g mask="url(#mask0)">
<path fill-rule="evenodd" clip-rule="evenodd" d="M91.584 71V0H180.576C200.14 0 216 15.8939 216 35.5C216 55.106 200.14 71 180.576 71H91.584Z" fill="white"/>
<path d="M91.584 71H88.128V74.4634H91.584V71ZM91.584 5.00679e-06V-3.46341H88.128V5.00679e-06H91.584ZM95.04 71V5.00679e-06H88.128V71H95.04ZM91.584 3.46342H180.576V-3.46341H91.584V3.46342ZM180.576 3.46342C198.231 3.46342 212.544 17.8066 212.544 35.5H219.456C219.456 13.9811 202.048 -3.46341 180.576 -3.46341V3.46342ZM212.544 35.5C212.544 53.1934 198.231 67.5366 180.576 67.5366V74.4634C202.048 74.4634 219.456 57.0189 219.456 35.5H212.544ZM180.576 67.5366H91.584V74.4634H180.576V67.5366Z" fill="#10499E"/>
<path d="M108.043 27.6485V33.5155H119.79V39.3445H108.043V48.4879H100.516V21.8196H121.387V27.6485H108.043ZM132.901 27.4961C136.322 27.4961 138.933 28.2835 140.732 29.8582C142.532 31.4075 143.431 33.7949 143.431 37.0205V48.4879H136.703V45.821C135.664 47.8276 133.636 48.8307 130.62 48.8307C129.023 48.8307 127.642 48.5514 126.476 47.9926C125.311 47.4338 124.423 46.6846 123.815 45.7448C123.232 44.7798 122.941 43.6876 122.941 42.4685C122.941 40.5128 123.689 39.0016 125.184 37.9348C126.679 36.8427 128.985 36.2966 132.103 36.2966H136.208C136.082 34.1124 134.625 33.0203 131.837 33.0203C130.848 33.0203 129.847 33.1853 128.833 33.5155C127.82 33.8203 126.958 34.252 126.248 34.8108L123.815 29.8963C124.956 29.1343 126.337 28.5502 127.959 28.1438C129.606 27.7121 131.254 27.4961 132.901 27.4961ZM132.635 44.259C133.471 44.259 134.206 44.0559 134.84 43.6495C135.473 43.243 135.93 42.6463 136.208 41.8589V40.0683H133.091C130.988 40.0683 129.936 40.7667 129.936 42.1637C129.936 42.7987 130.177 43.3066 130.658 43.6876C131.14 44.0686 131.799 44.259 132.635 44.259ZM154.872 30.3153C155.607 29.3755 156.557 28.6771 157.723 28.22C158.914 27.7373 160.27 27.4961 161.791 27.4961V34.0108C161.132 33.9346 160.587 33.8965 160.156 33.8965C158.61 33.8965 157.393 34.3156 156.506 35.1537C155.645 35.9919 155.214 37.2745 155.214 39.0016V48.4879H147.991V27.839H154.872V30.3153ZM191.611 27.4961C194.144 27.4961 196.159 28.2581 197.656 29.782C199.176 31.3059 199.937 33.6044 199.937 36.6776V48.4879H192.713V37.8587C192.713 36.4109 192.434 35.3442 191.877 34.6585C191.345 33.9727 190.585 33.6298 189.596 33.6298C188.506 33.6298 187.631 34.0108 186.973 34.7727C186.313 35.5347 185.985 36.6903 185.985 38.2396V48.4879H178.762V37.8587C178.762 35.0394 177.721 33.6298 175.644 33.6298C174.528 33.6298 173.642 34.0108 172.983 34.7727C172.324 35.5347 171.994 36.6903 171.994 38.2396V48.4879H164.771V27.839H171.652V30.0106C172.412 29.1724 173.311 28.5502 174.352 28.1438C175.416 27.7121 176.569 27.4961 177.811 27.4961C179.256 27.4961 180.548 27.7628 181.689 28.2962C182.829 28.8295 183.754 29.6422 184.464 30.7344C185.274 29.6931 186.301 28.8931 187.543 28.3343C188.784 27.7754 190.14 27.4961 191.611 27.4961Z" fill="#10499E"/>
</g>
</svg>
