<svg width="20" height="20" viewBox="0 0 20 20" fill="none" xmlns="http://www.w3.org/2000/svg">
<g clip-path="url(#clip0)">
<path d="M19.2958 11.5776C19.8925 6.55505 19.0091 3.38422 17.4158 1.95005L17.4166 1.94922C14.845 -0.499949 6.15995 -0.862449 3.08328 2.05922C1.70161 3.48838 1.21494 5.58588 1.16161 8.18255C1.10828 10.7801 1.04494 15.6459 5.57911 16.9659H5.58328L5.57911 18.9817C5.57911 18.9817 5.54828 19.7984 6.06995 19.9626C6.66661 20.1559 6.93661 19.7767 8.79245 17.5601C11.8958 17.8292 14.2791 17.2126 14.55 17.1226C15.1766 16.9126 18.7225 16.4434 19.2958 11.5776ZM9.09828 16.1417C9.09828 16.1417 7.13411 18.5909 6.52328 19.2267C6.32328 19.4334 6.10411 19.4142 6.10745 19.0042C6.10745 18.7351 6.12245 15.6576 6.12245 15.6576C2.27828 14.5559 2.50494 10.4126 2.54661 8.24505C2.58828 6.07672 2.98494 4.30088 4.15495 3.10505C6.85411 0.574218 14.4683 1.14005 16.4083 2.96338C18.78 5.06588 17.9358 11.0059 17.9408 11.2084C17.4533 15.2701 14.58 15.5276 14.0516 15.7034C13.8258 15.7784 11.7299 16.3176 9.09828 16.1417Z" fill="#8E24AA"/>
<path d="M10.185 3.5808C9.86413 3.5808 9.86413 4.0808 10.185 4.08496C12.6741 4.10413 14.7241 5.83913 14.7466 9.02163C14.7466 9.35746 15.2383 9.3533 15.2341 9.01746H15.2333C15.2066 5.5883 12.9683 3.59996 10.185 3.5808Z" fill="#8E24AA"/>
<path d="M13.4591 8.49419C13.4516 8.82585 13.9424 8.84169 13.9466 8.50585C13.9874 6.61503 12.8216 5.05753 10.6307 4.89336C10.3099 4.87003 10.2766 5.3742 10.5966 5.39753C12.4966 5.5417 13.4974 6.83836 13.4591 8.49419Z" fill="#8E24AA"/>
<path d="M12.9342 10.645C12.5225 10.4066 12.1033 10.555 11.93 10.7891L11.5675 11.2583C11.3833 11.4966 11.0392 11.465 11.0392 11.465C8.52748 10.8008 7.85581 8.17247 7.85581 8.17247C7.85581 8.17247 7.82498 7.81664 8.05498 7.62581L8.50831 7.25081C8.73498 7.07081 8.87831 6.63747 8.64748 6.21164C8.03081 5.09747 7.61665 4.71331 7.40581 4.41831C7.18414 4.14081 6.85081 4.07831 6.50414 4.26581H6.49664C5.77581 4.68747 4.98664 5.47664 5.23914 6.28914C5.66998 7.14581 6.46164 9.87664 8.98498 11.94C10.1708 12.9158 12.0475 13.9158 12.8442 14.1466L12.8517 14.1583C13.6367 14.42 14.4 13.6 14.8075 12.8575V12.8516C14.9883 12.4925 14.9283 12.1525 14.6642 11.93C14.1958 11.4733 13.4892 10.9691 12.9342 10.645Z" fill="#8E24AA"/>
<path d="M10.9741 6.75337C11.7749 6.80004 12.1633 7.21837 12.2049 8.07754C12.2199 8.41337 12.7074 8.39004 12.6924 8.05421C12.6391 6.93254 12.0541 6.30754 11.0008 6.24921C10.68 6.23004 10.65 6.73421 10.9741 6.75337Z" fill="#8E24AA"/>
</g>
<defs>
<clipPath id="clip0">
<rect width="20" height="20" fill="white"/>
</clipPath>
</defs>
</svg>
