<svg width="25" height="17" viewBox="0 0 25 17" fill="none" xmlns="http://www.w3.org/2000/svg">
<path d="M22 8.31908C22 11.078 17.2975 13.3158 11.5 13.3158C5.7025 13.3158 1 11.078 1 8.31908C1 10.2903 4.35775 11.8882 8.5 11.8882C12.6423 11.8882 16 10.2903 16 8.31908V7.60526H13L19 4.75L25 7.60526H22V8.31908Z" fill="black"/>
<path d="M2.53125 4.97461C2.53125 3.14024 6.49898 1.65234 11.3906 1.65234C16.2823 1.65234 20.25 3.14024 20.25 4.97461C20.25 3.66398 17.4169 2.60156 13.9219 2.60156C10.4269 2.60156 7.59375 3.66398 7.59375 4.97461V5.44922H10.125L5.0625 7.34766L0 5.44922H2.53125V4.97461Z" fill="black"/>
</svg>
