<svg width="15" height="15" viewBox="0 0 15 15" fill="none" xmlns="http://www.w3.org/2000/svg">
<g clip-path="url(#clip0)">
<path d="M14.7773 5.42184C14.5792 5.17335 14.2821 5.03079 13.962 5.03079H11.0732L9.50672 1.44389C9.4096 1.22149 9.15055 1.11986 8.92813 1.21704C8.70571 1.31416 8.60414 1.57323 8.70129 1.79565L10.1141 5.03082H4.88587L6.29871 1.79565C6.39583 1.57323 6.29429 1.31419 6.07186 1.21704C5.84947 1.11986 5.5904 1.22143 5.49328 1.44389L3.9268 5.03082H1.03802C0.717918 5.03082 0.42076 5.17335 0.222684 5.42187C0.0282402 5.66586 -0.0435078 5.97951 0.0258379 6.2825L1.56852 13.0208C1.67625 13.4913 2.09247 13.8199 2.5807 13.8199H12.4193C12.9075 13.8199 13.3237 13.4913 13.4315 13.0208L14.9742 6.28247C15.0435 5.97948 14.9718 5.66583 14.7773 5.42184ZM12.4193 12.9409H2.5807C2.50608 12.9409 2.44072 12.892 2.42528 12.8246L0.882596 6.08636C0.870496 6.03348 0.890799 5.99369 0.910018 5.96964C0.92783 5.94726 0.968172 5.90973 1.03802 5.90973H3.54299L3.42788 6.17331C3.33076 6.39573 3.4323 6.65477 3.65472 6.75192C3.71197 6.77694 3.77162 6.78878 3.83036 6.78878C3.99975 6.78878 4.16118 6.69025 4.23331 6.52511L4.50205 5.90978H10.498L10.7667 6.52511C10.8389 6.69028 11.0003 6.78878 11.1697 6.78878C11.2284 6.78878 11.2881 6.77694 11.3453 6.75192C11.5678 6.6548 11.6693 6.39573 11.5722 6.17331L11.4571 5.90973H13.962C14.0319 5.90973 14.0722 5.94726 14.09 5.96964C14.1092 5.99372 14.1296 6.03351 14.1175 6.08633L12.5748 12.8246C12.5593 12.892 12.4939 12.9409 12.4193 12.9409Z" fill="white"/>
<path d="M4.86328 7.81396C4.62059 7.81396 4.42383 8.01072 4.42383 8.25342V11.4761C4.42383 11.7188 4.62059 11.9155 4.86328 11.9155C5.10598 11.9155 5.30273 11.7188 5.30273 11.4761V8.25342C5.30273 8.01072 5.10601 7.81396 4.86328 7.81396Z" fill="white"/>
<path d="M7.5 7.81396C7.2573 7.81396 7.06055 8.01072 7.06055 8.25342V11.4761C7.06055 11.7188 7.2573 11.9155 7.5 11.9155C7.7427 11.9155 7.93945 11.7188 7.93945 11.4761V8.25342C7.93945 8.01072 7.7427 7.81396 7.5 7.81396Z" fill="white"/>
<path d="M10.1367 7.81396C9.89402 7.81396 9.69727 8.01072 9.69727 8.25342V11.4761C9.69727 11.7188 9.89402 11.9155 10.1367 11.9155C10.3794 11.9155 10.5762 11.7188 10.5762 11.4761V8.25342C10.5761 8.01072 10.3794 7.81396 10.1367 7.81396Z" fill="white"/>
</g>
<defs>
<clipPath id="clip0">
<rect width="15" height="15" fill="white"/>
</clipPath>
</defs>
</svg>
