<svg width="35" height="35" viewBox="0 0 35 35" fill="none" xmlns="http://www.w3.org/2000/svg">
<path d="M30.0489 10.6593C30.35 9.71761 30.4718 8.73778 30.4107 7.73589C30.1493 3.50444 26.3796 0.0345098 22.0075 0.000370276C21.9847 0.000370276 21.9626 0 21.9405 0C18.4108 0 15.2621 2.15256 14.0195 5.27962C12.7242 4.25529 11.0501 3.75364 9.34898 3.91382C6.92937 4.14065 4.81732 5.75669 3.96931 8.03137C3.59326 9.03756 3.49721 10.0708 3.68094 11.111C1.45506 12.1561 0.000244141 14.3675 0.000244141 16.7977C0.000244141 19.7785 1.93997 22.6132 4.61307 23.5378L5.09014 22.16C2.98593 21.4319 1.45854 19.1768 1.45854 16.7977C1.45854 14.7701 2.79013 12.9375 4.77251 12.2376L5.41909 12.009L5.23114 11.3496C4.95913 10.3997 4.99401 9.45523 5.33511 8.54124C5.98954 6.78709 7.61868 5.54059 9.48576 5.36582C11.1456 5.20801 12.7598 5.85636 13.8073 7.09361L14.7522 8.20977L15.0755 6.78354C15.7755 3.68995 18.6572 1.45837 21.9406 1.45837C21.9591 1.45837 21.9776 1.45874 21.9961 1.45874C25.6185 1.48681 28.7401 4.34327 28.9553 7.82535C29.0207 8.90167 28.8285 9.94733 28.3835 10.9331L27.9626 11.8648L28.9801 11.9592C31.5806 12.2002 33.5417 14.2805 33.5417 16.7977C33.5417 17.9591 33.19 20.7832 29.9301 21.9157L30.4086 23.2936C33.2839 22.2945 35 19.866 35 16.7977C34.9999 13.834 32.9285 11.3379 30.0489 10.6593Z" fill="#313131"/>
<path d="M9.95916 20.8686L11.2267 20.148L8.41614 15.204H5.21606L7.22696 20.9391L8.60269 20.4563L7.27251 16.6623H7.56732L9.95916 20.8686Z" fill="#313131"/>
<path d="M20.4772 20.4078L21.6721 19.5712L15.2471 10.3959H10.4562L15.1146 20.5015L16.439 19.8913L12.7349 11.8542H14.488L20.4772 20.4078Z" fill="#313131"/>
<path d="M9.95916 24.5272L7.56732 28.7334H7.27251L8.60269 24.9395L7.22696 24.4567L5.21606 30.1917H8.41614L11.2267 25.2478L9.95916 24.5272Z" fill="#313131"/>
<path d="M20.4772 24.988L14.488 33.5417H12.7349L16.439 25.5046L15.1146 24.8943L10.4562 35H15.2471L21.6721 25.8246L20.4772 24.988Z" fill="#313131"/>
<path d="M25.4809 19.1963C20.3355 19.2059 14.76 19.4519 7.96252 19.9678C6.68011 19.9678 5.63696 21.1922 5.63696 22.6968C5.63696 24.2007 6.67796 25.4243 7.93127 25.424C7.93194 25.424 7.93342 25.424 7.93475 25.424C14.7984 25.9446 20.3739 26.1917 25.4887 26.2013C27.6541 26.1832 29.4841 24.5817 29.4841 22.7044V22.6969C29.4842 20.8127 27.6535 19.2098 25.4809 19.1963ZM28.0258 22.7044C28.0258 23.7788 26.8346 24.7315 25.4837 24.743C20.4138 24.7334 14.8725 24.4878 8.04443 23.97L7.96252 23.9679C7.49257 23.9679 7.09526 23.3857 7.09526 22.6968C7.09526 22.0079 7.49257 21.4261 7.96252 21.4261L8.04443 21.4239C14.834 20.9088 20.3754 20.6641 25.4781 20.6545C26.8353 20.663 28.0258 21.6172 28.0258 22.6967V22.7044Z" fill="#313131"/>
</svg>
