<svg width="35" height="35" viewBox="0 0 35 35" fill="none" xmlns="http://www.w3.org/2000/svg">
<g clip-path="url(#clip0)">
<path d="M32.1397 16.5656C32.1397 14.6615 31.2876 12.9559 29.9487 11.7991C29.6109 5.26002 24.1265 0 17.5215 0C10.9244 0 5.43999 5.26036 5.10221 11.7998C3.76372 12.9562 2.91193 14.6619 2.91193 16.5656C2.91193 20.0418 5.73952 22.8694 9.215 22.8694C9.65627 22.8694 10.0142 22.5118 10.0142 22.0698L10.0145 11.0621C10.0145 10.8496 9.93052 10.6467 9.78059 10.4968C9.63065 10.3469 9.4271 10.2625 9.21534 10.2625C8.36697 10.2625 7.55855 10.4333 6.81912 10.7383C7.64769 5.58277 12.1628 1.59874 17.5297 1.59874C22.8891 1.59874 27.4036 5.58277 28.2322 10.7383C27.4927 10.4333 26.6847 10.2625 25.8366 10.2625C25.3953 10.2625 25.0374 10.6201 25.0374 11.0621V22.0698C25.0374 22.5118 25.3953 22.8694 25.8366 22.8694C26.686 22.8694 27.4958 22.6982 28.2359 22.3922C27.5607 26.6232 24.4032 30.1263 20.2081 31.1899C19.7265 30.2934 18.708 29.668 17.5219 29.668C15.8746 29.668 14.5348 30.8641 14.5348 32.334C14.5348 33.804 15.8746 35.0001 17.5219 35.0001C19.0011 35.0001 20.2238 34.0328 20.4591 32.7709C25.7738 31.4898 29.6731 26.808 29.9518 21.33C31.2889 20.1729 32.1397 18.4683 32.1397 16.5656ZM8.41546 21.2026C6.20128 20.8218 4.51066 18.8874 4.51066 16.5656C4.51066 14.2438 6.20128 12.31 8.41581 11.9292L8.41546 21.2026ZM17.5219 33.4013C16.7565 33.4013 16.1335 32.9225 16.1335 32.334C16.1335 31.7456 16.7565 31.2667 17.5219 31.2667C18.2873 31.2667 18.9099 31.7456 18.9099 32.334C18.9099 32.9225 18.2873 33.4013 17.5219 33.4013ZM26.6362 11.9292C28.8503 12.31 30.541 14.2438 30.541 16.5656C30.541 18.8874 28.8503 20.8218 26.6362 21.2026V11.9292Z" fill="#313131"/>
</g>
<defs>
<clipPath id="clip0">
<rect width="35" height="35" fill="white"/>
</clipPath>
</defs>
</svg>
