<svg width="35" height="35" viewBox="0 0 35 35" fill="none" xmlns="http://www.w3.org/2000/svg">
<path d="M31.0962 28.5276C30.9066 28.1992 30.4867 28.0866 30.158 28.2762L27.6614 29.7175C27.333 29.9071 27.2204 30.3272 27.4101 30.6556C27.5373 30.8759 27.7681 30.9992 28.0056 30.9992C28.122 30.9992 28.2401 30.9695 28.3483 30.9071L30.8448 29.4658C31.1732 29.2761 31.2859 28.8561 31.0962 28.5276Z" fill="#313131"/>
<path d="M34.8273 19.8958C34.8271 19.8678 34.8255 19.8399 34.8218 19.8119C34.8215 19.8101 34.8211 19.8082 34.8209 19.8064C34.8174 19.7814 34.8122 19.7565 34.8059 19.7318C34.8041 19.7248 34.8021 19.7181 34.8002 19.7113C34.7945 19.6913 34.7876 19.6716 34.78 19.652C34.7773 19.6453 34.7749 19.6384 34.772 19.6317C34.7615 19.6072 34.75 19.5831 34.7364 19.5595C34.7359 19.5588 34.7355 19.558 34.7351 19.5573C34.7215 19.5338 34.7064 19.5118 34.6906 19.4906C34.6863 19.4847 34.6815 19.4792 34.677 19.4736C34.6638 19.4571 34.6501 19.4414 34.6357 19.4264C34.6307 19.4212 34.6258 19.4161 34.6208 19.4112C34.6025 19.3933 34.5834 19.3764 34.5635 19.3608C34.562 19.3597 34.5607 19.3584 34.5593 19.3573C34.537 19.3402 34.5136 19.3248 34.4895 19.3106C34.4877 19.3096 34.4862 19.3082 34.4844 19.3072L26.5071 14.7019V5.49037C26.5071 5.48838 26.5067 5.48654 26.5067 5.48455C26.5065 5.45646 26.5048 5.42836 26.5011 5.40027C26.5009 5.39883 26.5005 5.39746 26.5003 5.3961C26.4968 5.37053 26.4915 5.34524 26.485 5.31994C26.4834 5.31345 26.4815 5.30696 26.4796 5.30046C26.4737 5.28002 26.4668 5.25972 26.4589 5.23962C26.4564 5.23333 26.4542 5.22691 26.4515 5.22075C26.4408 5.1958 26.4291 5.17113 26.4151 5.14699C26.4013 5.12293 26.3858 5.10051 26.3696 5.07877C26.3655 5.07323 26.3609 5.06797 26.3566 5.06257C26.3433 5.04582 26.3294 5.02983 26.3147 5.01465C26.3099 5.00966 26.3051 5.0046 26.3002 4.99975C26.2818 4.98177 26.2627 4.96482 26.2427 4.94916C26.2414 4.94807 26.2401 4.94684 26.2387 4.94574C26.2163 4.92859 26.1929 4.91314 26.1687 4.89892C26.167 4.89789 26.1655 4.89659 26.1638 4.89564L17.8435 0.0920035C17.631 -0.0306337 17.3692 -0.030702 17.1567 0.0920035L8.83653 4.89557C8.83489 4.89652 8.83352 4.89769 8.83188 4.89864C8.80755 4.91293 8.78403 4.92845 8.7614 4.94581C8.76031 4.94663 8.75935 4.94759 8.75826 4.94848C8.73796 4.96427 8.71854 4.98156 8.69995 4.99975C8.69509 5.00453 8.69031 5.00945 8.68559 5.01438C8.67096 5.02962 8.65702 5.04562 8.64369 5.06237C8.63938 5.06777 8.6348 5.0731 8.63063 5.0787C8.61443 5.10037 8.59905 5.12286 8.58517 5.14686C8.57129 5.17092 8.55954 5.19546 8.54887 5.22034C8.54614 5.22677 8.54381 5.23347 8.54122 5.23996C8.53342 5.25979 8.52659 5.27975 8.52078 5.29991C8.51886 5.30655 8.51695 5.31324 8.51517 5.31994C8.50881 5.3449 8.50355 5.36998 8.50006 5.39521C8.49986 5.39692 8.49938 5.39849 8.49918 5.4002C8.49548 5.42816 8.49384 5.45625 8.49364 5.48421C8.49364 5.48619 8.49323 5.48818 8.49323 5.49016V14.7016L0.515795 19.307C0.514086 19.308 0.51265 19.3093 0.51101 19.3102C0.486742 19.3244 0.463226 19.34 0.440736 19.3573C0.439642 19.3581 0.438617 19.3591 0.437523 19.3599C0.41722 19.3757 0.397874 19.3929 0.379281 19.4113C0.374359 19.416 0.369642 19.421 0.364857 19.426C0.350296 19.4411 0.336351 19.4571 0.323021 19.4738C0.318646 19.4793 0.313997 19.4847 0.309827 19.4903C0.293831 19.5117 0.278655 19.5339 0.264915 19.5576C0.26471 19.558 0.264436 19.5583 0.264231 19.5587C0.250491 19.5826 0.238733 19.607 0.228206 19.6317C0.225403 19.6383 0.22301 19.6451 0.220344 19.6518C0.212688 19.6714 0.205852 19.6913 0.200042 19.7113C0.198059 19.7181 0.196145 19.7248 0.194368 19.7317C0.18801 19.7565 0.182815 19.7814 0.179329 19.8064C0.179055 19.8082 0.178645 19.81 0.178372 19.8118C0.17468 19.8398 0.17304 19.8678 0.172834 19.8959C0.172834 19.8978 0.172424 19.8998 0.172424 19.9017V29.5096H0.172493C0.172493 29.755 0.303401 29.9817 0.515863 30.1044L8.83667 34.9079C8.83831 34.9089 8.84015 34.9095 8.84179 34.9104C8.86627 34.9243 8.89135 34.9369 8.91754 34.9478C8.91911 34.9484 8.92068 34.9489 8.92225 34.9495C8.94584 34.959 8.97011 34.967 8.99492 34.974C9.00169 34.9759 9.00852 34.9776 9.01529 34.9792C9.03553 34.9842 9.05617 34.9882 9.07709 34.9914C9.08413 34.9925 9.09117 34.9938 9.09828 34.9946C9.12508 34.9977 9.15228 34.9999 9.1799 34.9999C9.20752 34.9999 9.23472 34.9977 9.26152 34.9946C9.26863 34.9938 9.27567 34.9924 9.28271 34.9914C9.30363 34.9882 9.32421 34.9843 9.34444 34.9792C9.35128 34.9775 9.35811 34.9759 9.36495 34.9739C9.38963 34.9671 9.41376 34.959 9.43721 34.9495C9.43892 34.9489 9.44062 34.9484 9.44233 34.9476C9.46845 34.9368 9.49354 34.9242 9.5178 34.9104C9.51951 34.9095 9.52136 34.9088 9.52314 34.9078L17.4998 30.3025L25.4765 34.9078C25.4783 34.9089 25.4801 34.9095 25.4819 34.9105C25.5062 34.9243 25.5313 34.9368 25.5573 34.9476C25.5591 34.9484 25.5609 34.9489 25.5627 34.9496C25.5861 34.9591 25.6101 34.967 25.6348 34.9739C25.6416 34.9759 25.6485 34.9775 25.6553 34.9792C25.6755 34.9842 25.6961 34.9882 25.717 34.9914C25.7241 34.9925 25.7311 34.9938 25.7382 34.9946C25.765 34.9977 25.7922 34.9999 25.8199 34.9999C25.8476 34.9999 25.8747 34.9977 25.9015 34.9946C25.9086 34.9938 25.9156 34.9924 25.9228 34.9914C25.9436 34.9882 25.9642 34.9843 25.9844 34.9792C25.9912 34.9775 25.9981 34.9759 26.005 34.9739C26.0296 34.9671 26.0536 34.9591 26.077 34.9496C26.0788 34.9489 26.0807 34.9484 26.0824 34.9476C26.1085 34.9368 26.1335 34.9242 26.1578 34.9105C26.1596 34.9095 26.1615 34.9089 26.1632 34.9078L34.484 30.1043C34.6966 29.9817 34.8275 29.755 34.8275 29.5096V19.9019C34.8278 19.8998 34.8273 19.8978 34.8273 19.8958ZM28.6145 17.5045L21.668 21.5151L18.8736 19.9017L25.8201 15.8913L28.6145 17.5045ZM25.1333 14.7018L18.1869 18.7122V10.6912L25.1333 6.6801V14.7018ZM17.5 1.47984L20.2944 3.09313L13.3477 7.10379L10.5535 5.49037L17.5 1.47984ZM9.1799 15.8914L11.9739 17.5044L5.02719 21.515L2.23292 19.9018L9.1799 15.8914ZM8.49316 33.1237L1.54597 29.1132V21.0914L4.50499 22.7996C4.59666 22.8951 4.71185 22.9604 4.83619 22.9908L8.49316 25.1021V33.1237ZM9.17997 23.9124L6.40094 22.3081L13.3474 18.2975L16.1264 19.9019L9.17997 23.9124ZM16.8132 29.1132L9.86678 33.1237V25.102L16.8132 21.0914V29.1132ZM16.8132 18.7123L9.86678 14.7018V6.68003L12.8239 8.38765C12.9161 8.48411 13.0322 8.54987 13.1576 8.58029L16.8133 10.6912V18.7123H16.8132ZM14.7214 7.89703L21.668 3.88617L24.4465 5.49037L17.5001 9.5015L14.7214 7.89703ZM25.1333 33.1236L18.1869 29.1132V21.0914L21.1458 22.7997C21.2372 22.8949 21.3523 22.96 21.4764 22.9906L25.1333 25.1019V33.1236H25.1333ZM25.8201 23.9124L23.0416 22.3082L29.9882 18.2975L32.7671 19.9019L25.8201 23.9124ZM33.4541 29.1132L26.507 33.1237V25.102L33.4541 21.0914V29.1132Z" fill="#313131"/>
<path d="M32.2208 27.2872C31.3369 27.2872 31.3354 28.6608 32.2208 28.6608C33.1046 28.6608 33.1061 27.2872 32.2208 27.2872Z" fill="#313131"/>
</svg>
