<svg width="40" height="40" viewBox="0 0 40 40" fill="none" xmlns="http://www.w3.org/2000/svg">
<g clip-path="url(#clip0)">
<path d="M38.9377 13.7272L26.2719 1.06144C25.9353 0.723661 25.5349 0.456005 25.0941 0.27398C24.6533 0.0919538 24.1808 -0.000820728 23.7039 0.00100293C23.227 -0.000820728 22.7545 0.0919538 22.3137 0.27398C21.8729 0.456005 21.4725 0.723661 21.1359 1.06144L1.05944 21.1379C0.721764 21.4744 0.454175 21.8746 0.272151 22.3152C0.0901292 22.7558 -0.00272052 23.2283 -0.00101451 23.705C-0.00101451 24.6774 0.375882 25.5886 1.05944 26.2721L2.62122 27.8339L2.6221 27.8348L13.119 38.3317H11.6657C11.4448 38.3317 11.233 38.4194 11.0767 38.5756C10.9205 38.7318 10.8328 38.9437 10.8328 39.1646C10.8328 39.3854 10.9205 39.5973 11.0767 39.7535C11.233 39.9097 11.4448 39.9974 11.6657 39.9974H28.3323C28.5532 39.9974 28.765 39.9097 28.9213 39.7535C29.0775 39.5973 29.1652 39.3854 29.1652 39.1646C29.1652 38.9437 29.0775 38.7318 28.9213 38.5756C28.765 38.4194 28.5532 38.3317 28.3323 38.3317H19.4683L38.9386 18.8614C39.6182 18.1799 39.9999 17.2566 39.9997 16.2942C39.9995 15.3317 39.6176 14.4085 38.9377 13.7272ZM37.7599 17.6837L17.6834 37.7601C17.5016 37.9421 17.2855 38.0862 17.0476 38.1844C16.8098 38.2824 16.5549 38.3325 16.2977 38.3317H16.2914C16.0342 38.3325 15.7793 38.2824 15.5414 38.1844C15.3036 38.0862 15.0875 37.9421 14.9057 37.7601L4.391 27.2454L23.6719 7.96454C23.821 7.80678 23.9026 7.59712 23.8995 7.3801C23.8965 7.16308 23.8089 6.95582 23.6554 6.80236C23.5019 6.64888 23.2946 6.56129 23.0777 6.55822C22.8606 6.55514 22.651 6.63683 22.4932 6.78589L3.21232 26.0668L2.23899 25.0934C2.05656 24.9112 1.91211 24.6945 1.81399 24.456C1.71588 24.2175 1.66608 23.962 1.66744 23.7041C1.66744 23.177 1.871 22.6837 2.23989 22.3148L22.3163 2.23833C22.6852 1.86944 23.1786 1.66678 23.7057 1.66678C24.2328 1.66678 24.7261 1.87034 25.095 2.23923L29.6034 6.74766L10.3226 26.0286C10.2402 26.1048 10.1739 26.1968 10.128 26.2992C10.082 26.4017 10.0572 26.5123 10.055 26.6246C10.0529 26.7368 10.0734 26.8483 10.1154 26.9525C10.1573 27.0566 10.2199 27.1511 10.2993 27.2305C10.3787 27.3099 10.4733 27.3724 10.5775 27.4142C10.6816 27.4561 10.7931 27.4766 10.9054 27.4743C11.0177 27.472 11.1282 27.4471 11.2306 27.4011C11.333 27.355 11.425 27.2888 11.5012 27.2063L30.7821 7.92542L37.7617 14.905C38.1287 15.2743 38.3346 15.774 38.3342 16.2947C38.3338 16.8154 38.1274 17.3148 37.7599 17.6837Z" fill="#7B7E7B"/>
<path d="M20.5316 24.0678C20.3752 23.9116 20.1632 23.8238 19.9422 23.8238C19.7213 23.8238 19.5093 23.9116 19.3529 24.0678L12.7956 30.6252C12.6465 30.7829 12.5648 30.9925 12.5679 31.2096C12.571 31.4266 12.6586 31.6339 12.812 31.7874C12.9655 31.9408 13.1728 32.0284 13.3898 32.0315C13.6069 32.0346 13.8165 31.9529 13.9742 31.8038L20.5316 25.2465C20.6878 25.0901 20.7756 24.8781 20.7756 24.6572C20.7756 24.4362 20.6878 24.2242 20.5316 24.0678ZM17.8418 30.2927L15.152 32.9825C15.003 33.1403 14.9213 33.3499 14.9244 33.5669C14.9274 33.7839 15.015 33.9912 15.1685 34.1447C15.322 34.2981 15.5293 34.3857 15.7462 34.3888C15.9633 34.3918 16.1729 34.3102 16.3307 34.1611L19.0205 31.4714C19.1695 31.3136 19.2512 31.1039 19.2481 30.8869C19.2451 30.6699 19.1574 30.4627 19.004 30.3091C18.8505 30.1557 18.6432 30.0681 18.4262 30.0651C18.2092 30.062 17.9996 30.1436 17.8418 30.2927ZM20.3165 27.818L19.9627 28.1718C19.8136 28.3296 19.7319 28.5392 19.735 28.7563C19.7382 28.9732 19.8257 29.1805 19.9791 29.334C20.1326 29.4875 20.3399 29.575 20.5569 29.5781C20.7739 29.5812 20.9836 29.4995 21.1414 29.3505L21.4951 28.9967C21.6442 28.8389 21.7259 28.6292 21.7228 28.4123C21.7198 28.1952 21.6321 27.9879 21.4787 27.8345C21.3252 27.681 21.118 27.5934 20.9009 27.5904C20.6839 27.5873 20.4742 27.669 20.3165 27.818ZM31.8027 12.7967C31.7254 12.7192 31.6334 12.6578 31.5324 12.6159C31.4312 12.5739 31.3229 12.5524 31.2134 12.5524C31.1039 12.5524 30.9955 12.5739 30.8943 12.6159C30.7933 12.6578 30.7014 12.7192 30.624 12.7967L27.0889 16.3318C27.0115 16.4091 26.95 16.501 26.9081 16.6021C26.8662 16.7033 26.8446 16.8116 26.8446 16.9211C26.8446 17.0307 26.8662 17.139 26.9081 17.2402C26.95 17.3412 27.0115 17.4331 27.0889 17.5105L29.4462 19.8669C29.5235 19.9446 29.6153 20.0062 29.7165 20.0483C29.8176 20.0903 29.9261 20.112 30.0356 20.112C30.1451 20.112 30.2535 20.0903 30.3547 20.0483C30.4558 20.0062 30.5477 19.9446 30.6249 19.8669L34.16 16.3318C34.3162 16.1755 34.404 15.9635 34.404 15.7425C34.404 15.5214 34.3162 15.3095 34.16 15.1531L31.8027 12.7967ZM30.0347 18.0998L28.856 16.9211L31.2134 14.5638L32.392 15.7425L30.0347 18.0998ZM25.0267 6.26514C25.24 6.26514 25.4534 6.18337 25.616 6.02071L25.9698 5.66692C26.1189 5.50916 26.2006 5.29949 26.1974 5.08247C26.1944 4.86545 26.1068 4.6582 25.9534 4.50472C25.7998 4.35126 25.5926 4.26366 25.3756 4.26058C25.1586 4.25751 24.9489 4.3392 24.7911 4.48826L24.4374 4.84202C24.3208 4.95863 24.2415 5.10716 24.2094 5.26883C24.1773 5.4305 24.1938 5.59807 24.2568 5.75036C24.3199 5.90265 24.4267 6.03284 24.5638 6.12447C24.7007 6.21608 24.8619 6.26504 25.0267 6.26514ZM8.37603 27.9736L8.02224 28.3274C7.87317 28.4851 7.7915 28.6948 7.79458 28.9118C7.79765 29.1288 7.88524 29.3361 8.0387 29.4896C8.19218 29.643 8.39944 29.7306 8.61646 29.7337C8.83348 29.7367 9.04313 29.6551 9.20091 29.506L9.55468 29.1523C9.70375 28.9945 9.78544 28.7848 9.78233 28.5678C9.77931 28.3507 9.69166 28.1436 9.53824 27.99C9.38473 27.8366 9.17753 27.749 8.96046 27.746C8.74345 27.7428 8.53378 27.8245 8.37603 27.9736Z" fill="#7B7E7B"/>
</g>
<defs>
<clipPath id="clip0">
<rect width="40" height="40" fill="white"/>
</clipPath>
</defs>
</svg>
