<svg width="40" height="40" viewBox="0 0 40 40" fill="none" xmlns="http://www.w3.org/2000/svg">
<path d="M32.7021 26.3044C31.7247 26.3044 30.7962 26.6872 30.0957 27.3795C29.3952 28.08 29.0043 28.9922 29.0043 29.9696C29.0043 30.947 29.3871 31.8593 30.0957 32.5597C30.8043 33.2521 31.7247 33.6349 32.7021 33.6349C34.7058 33.6349 36.3348 31.9896 36.3348 29.9696C36.3348 27.9497 34.7058 26.3044 32.7021 26.3044ZM32.7021 32.0059C31.5781 32.0059 30.6333 31.0773 30.6333 29.9696C30.6333 28.8619 31.5781 27.9334 32.7021 27.9334C33.8098 27.9334 34.7058 28.8456 34.7058 29.9696C34.7058 31.0936 33.8098 32.0059 32.7021 32.0059ZM33.6469 14.0951C33.5003 13.9566 33.3048 13.8833 33.1012 13.8833H28.9228C28.4749 13.8833 28.1083 14.2498 28.1083 14.6978V21.3767C28.1083 21.8247 28.4749 22.1912 28.9228 22.1912H35.5528C36.0008 22.1912 36.3673 21.8247 36.3673 21.3767V16.9051C36.3673 16.677 36.2696 16.4571 36.0986 16.3024L33.6469 14.0951ZM34.7383 20.5622H29.7373V15.5041H32.7835L34.7383 17.2635V20.5622ZM12.8121 26.3044C11.8347 26.3044 10.9061 26.6872 10.2057 27.3795C9.50519 28.08 9.11423 28.9922 9.11423 29.9696C9.11423 30.947 9.49705 31.8593 10.2057 32.5597C10.9143 33.2521 11.8347 33.6349 12.8121 33.6349C14.8157 33.6349 16.4447 31.9896 16.4447 29.9696C16.4447 27.9497 14.8157 26.3044 12.8121 26.3044ZM12.8121 32.0059C11.688 32.0059 10.7432 31.0773 10.7432 29.9696C10.7432 28.8619 11.688 27.9334 12.8121 27.9334C13.9198 27.9334 14.8157 28.8456 14.8157 29.9696C14.8157 31.0936 13.9198 32.0059 12.8121 32.0059ZM7.37935 27.3062H5.74221V25.1397C5.74221 24.6917 5.37569 24.3252 4.92771 24.3252C4.47974 24.3252 4.11322 24.6917 4.11322 25.1397V28.1207C4.11322 28.5687 4.47974 28.9352 4.92771 28.9352H7.37935C7.82733 28.9352 8.19385 28.5687 8.19385 28.1207C8.19385 27.6727 7.82733 27.3062 7.37935 27.3062ZM11.5089 22.8672C11.5089 22.4192 11.1423 22.0527 10.6944 22.0527H0.814498C0.366524 22.0527 0 22.4192 0 22.8672C0 23.3152 0.366524 23.6817 0.814498 23.6817H10.6944C11.1423 23.6817 11.5089 23.3233 11.5089 22.8672ZM2.46793 19.9269L12.3478 19.9839C12.7958 19.9839 13.1623 19.6255 13.1704 19.1775C13.1786 18.7214 12.8121 18.3549 12.3641 18.3549L2.48422 18.2979C2.47607 18.2979 2.47607 18.2979 2.47607 18.2979C2.0281 18.2979 1.66158 18.6563 1.66158 19.1042C1.65343 19.5603 2.01996 19.9269 2.46793 19.9269ZM4.12951 16.229H14.0094C14.4573 16.229 14.8239 15.8625 14.8239 15.4145C14.8239 14.9666 14.4573 14.6001 14.0094 14.6001H4.12951C3.68153 14.6001 3.31501 14.9666 3.31501 15.4145C3.31501 15.8625 3.68153 16.229 4.12951 16.229ZM39.6986 15.1295L33.8668 10.2995C33.7202 10.1773 33.541 10.1122 33.3456 10.1122H26.4875V7.17998C26.4875 6.732 26.121 6.36548 25.673 6.36548H4.92771C4.47974 6.36548 4.11322 6.732 4.11322 7.17998V13.1421C4.11322 13.5901 4.47974 13.9566 4.92771 13.9566C5.37569 13.9566 5.74221 13.5901 5.74221 13.1421V7.99447H24.8666V27.3062H18.1877C17.7398 27.3062 17.3732 27.6727 17.3732 28.1207C17.3732 28.5687 17.7398 28.9352 18.1877 28.9352H28.1328C28.5807 28.9352 28.9473 28.5687 28.9473 28.1207C28.9473 27.6727 28.5807 27.3062 28.1328 27.3062H26.4956V11.7412H33.0605L38.371 16.1395L38.314 27.2899H37.4669C37.0189 27.2899 36.6524 27.6565 36.6524 28.1044C36.6524 28.5524 37.0189 28.9189 37.4669 28.9189H39.1203C39.5683 28.9189 39.9348 28.5606 39.9348 28.1126L40 15.7648C39.9919 15.5204 39.886 15.2842 39.6986 15.1295Z" fill="#7B7E7B"/>
</svg>
