<svg width="40" height="40" viewBox="0 0 40 40" fill="none" xmlns="http://www.w3.org/2000/svg">
<g clip-path="url(#clip0)">
<path d="M39.5982 18.634H37.6791V9.80551C37.678 8.78794 37.2732 7.81236 36.5536 7.09281C35.834 6.37325 34.8585 5.96849 33.8409 5.96732H31.2418L28.5813 1.18509C28.4346 0.920622 28.2372 0.687663 28.0003 0.499531C27.7635 0.311398 27.4918 0.171779 27.2011 0.0886517C26.9102 0.00552477 26.6059 -0.0194804 26.3053 0.0150649C26.0049 0.0496103 25.7141 0.143029 25.4498 0.289983L15.2409 5.96732H3.83822C2.82062 5.96849 1.84504 6.37325 1.12548 7.09281C0.405937 7.81236 0.00117628 8.78794 0 9.80551V36.162C0.00117628 37.1796 0.405937 38.1552 1.12548 38.8748C1.84504 39.5943 2.82062 39.999 3.83822 40.0002H33.8409C34.8585 39.999 35.834 39.5943 36.5536 38.8748C37.2732 38.1552 37.678 37.1796 37.6791 36.162V28.4215H39.5982V18.634ZM33.8409 7.50243C34.4058 7.5043 34.9503 7.71414 35.3703 8.0919C35.7904 8.46965 36.0566 8.98889 36.1182 9.5504H33.2338L32.096 7.50243H33.8409ZM26.1964 1.6322C26.375 1.53749 26.5834 1.51559 26.7778 1.57111C26.9721 1.62662 27.1375 1.75524 27.2391 1.92998L31.4764 9.54862H11.9591L26.1964 1.6322ZM36.144 36.162C36.1433 36.7724 35.9005 37.3575 35.4689 37.7892C35.0373 38.2207 34.4522 38.4635 33.8418 38.4642H3.83822C3.22777 38.4635 2.64251 38.2207 2.21077 37.7892C1.77903 37.3576 1.53605 36.7724 1.53511 36.162V9.80551C1.53605 9.19502 1.779 8.60974 2.21071 8.17804C2.64243 7.74632 3.22769 7.50337 3.83822 7.50243H12.4809L8.79911 9.5504H4.31911C4.21612 9.54693 4.11347 9.56418 4.01729 9.60116C3.9211 9.63813 3.83334 9.69413 3.75924 9.76578C3.68515 9.83742 3.62622 9.9232 3.58597 10.018C3.54572 10.1129 3.52499 10.2149 3.52499 10.318C3.52499 10.4211 3.54572 10.523 3.58597 10.6179C3.62622 10.7128 3.68515 10.7986 3.75924 10.8702C3.83334 10.9418 3.9211 10.9978 4.01729 11.0348C4.11347 11.0718 4.21612 11.0891 4.31911 11.0855H36.144V18.6348H30.5307C29.277 18.6365 28.0751 19.1353 27.1886 20.0218C26.3021 20.9083 25.8035 22.11 25.8018 23.3637V23.6935C25.8035 24.9472 26.3021 26.1491 27.1886 27.0356C28.0751 27.922 29.277 28.4208 30.5307 28.4224H36.144V36.162ZM38.0631 26.8864H30.5298C29.6829 26.8857 28.871 26.549 28.2722 25.9502C27.6734 25.3514 27.3367 24.5395 27.336 23.6926V23.3628C27.337 22.5162 27.6738 21.7044 28.2725 21.1059C28.8713 20.5073 29.6831 20.1707 30.5298 20.17H38.0631V26.8864ZM32.8809 23.5904C32.8809 24.04 32.7023 24.4712 32.3844 24.7891C32.0665 25.1069 31.6354 25.2855 31.1858 25.2855C30.7362 25.2855 30.3051 25.1069 29.9871 24.7891C29.6692 24.4712 29.4907 24.04 29.4907 23.5904C29.4907 23.1409 29.6692 22.7097 29.9871 22.3918C30.3051 22.0739 30.7362 21.8953 31.1858 21.8953C31.6354 21.8953 32.0665 22.0739 32.3844 22.3918C32.7023 22.7097 32.8809 23.1409 32.8809 23.5904Z" fill="#7B7E7B"/>
</g>
<defs>
<clipPath id="clip0">
<rect width="40" height="40" fill="white"/>
</clipPath>
</defs>
</svg>
